<svg width="20" height="20" viewBox="0 0 20 20" fill="none" xmlns="http://www.w3.org/2000/svg">
<path d="M16.6667 10.0001C16.6666 8.51415 16.17 7.07086 15.2558 5.89941C14.3417 4.72795 13.0624 3.89548 11.621 3.53419C10.1797 3.1729 8.65895 3.3035 7.30032 3.90525C5.94168 4.507 4.82303 5.54541 4.12199 6.85557C3.42095 8.16574 3.17771 9.67256 3.43091 11.1368C3.6841 12.601 4.41921 13.9386 5.5195 14.9373C6.61979 15.936 8.02219 16.5384 9.504 16.649C10.9858 16.7596 12.4621 16.3719 13.6984 15.5476L14.6234 16.9342C13.2553 17.849 11.6459 18.3361 10.0001 18.3334C5.39758 18.3334 1.66675 14.6026 1.66675 10.0001C1.66675 5.39758 5.39758 1.66675 10.0001 1.66675C14.6026 1.66675 18.3334 5.39758 18.3334 10.0001V11.2501C18.3335 11.874 18.1335 12.4816 17.7628 12.9835C17.392 13.4853 16.8701 13.8551 16.2737 14.0384C15.6773 14.2218 15.0378 14.209 14.4492 14.002C13.8605 13.795 13.3538 13.4047 13.0034 12.8884C12.4472 13.4667 11.7359 13.8722 10.9548 14.056C10.1738 14.2398 9.3563 14.1943 8.60055 13.9247C7.8448 13.6552 7.18294 13.1732 6.6945 12.5366C6.20606 11.9 5.91182 11.1359 5.84712 10.3362C5.78241 9.5364 5.95001 8.73496 6.32977 8.02814C6.70953 7.32132 7.28529 6.73918 7.98789 6.35167C8.69049 5.96415 9.49003 5.78774 10.2905 5.84364C11.0909 5.89953 11.8582 6.18535 12.5001 6.66675H14.1667V11.2501C14.1667 11.5816 14.2984 11.8995 14.5329 12.134C14.7673 12.3684 15.0852 12.5001 15.4167 12.5001C15.7483 12.5001 16.0662 12.3684 16.3006 12.134C16.5351 11.8995 16.6667 11.5816 16.6667 11.2501V10.0001ZM10.0001 7.50008C9.33704 7.50008 8.70116 7.76347 8.23231 8.23231C7.76347 8.70115 7.50008 9.33704 7.50008 10.0001C7.50008 10.6631 7.76347 11.299 8.23231 11.7678C8.70116 12.2367 9.33704 12.5001 10.0001 12.5001C10.6631 12.5001 11.299 12.2367 11.7678 11.7678C12.2367 11.299 12.5001 10.6631 12.5001 10.0001C12.5001 9.33704 12.2367 8.70115 11.7678 8.23231C11.299 7.76347 10.6631 7.50008 10.0001 7.50008Z" fill="#2F2B43" fill-opacity="0.6"/>
</svg>
