<?xml version="1.0" encoding="UTF-8"?>
<!DOCTYPE svg PUBLIC "-//W3C//DTD SVG 1.1//EN" "http://www.w3.org/Graphics/SVG/1.1/DTD/svg11.dtd">
<svg xmlns="http://www.w3.org/2000/svg" version="1.1" width="512px" height="512px" style="shape-rendering:geometricPrecision; text-rendering:geometricPrecision; image-rendering:optimizeQuality; fill-rule:evenodd; clip-rule:evenodd" xmlns:xlink="http://www.w3.org/1999/xlink">
<g><path style="opacity:0.987" fill="#000000" d="M 413.5,88.5 C 421.363,88.239 428.697,90.0724 435.5,94C 444.333,101.5 452.5,109.667 460,118.5C 465.574,129.679 465.907,141.012 461,152.5C 375.527,238.973 289.694,325.139 203.5,411C 195.5,415.667 187.5,415.667 179.5,411C 135.972,367.806 92.8055,324.306 50,280.5C 45.093,269.012 45.4263,257.679 51,246.5C 58.5,237.667 66.6667,229.5 75.5,222C 88.3772,214.527 101.044,214.86 113.5,223C 139.167,248.667 164.833,274.333 190.5,300C 191.167,300.667 191.833,300.667 192.5,300C 260.833,231.667 329.167,163.333 397.5,95C 402.566,91.9285 407.9,89.7618 413.5,88.5 Z"/></g>
</svg>
