<svg width="64" height="54" viewBox="0 0 64 54" fill="none" xmlns="http://www.w3.org/2000/svg">
<path d="M58.0002 6H10.0002L8.625 46.625L17.0002 42L58.0002 43V6Z" fill="white"/>
<path d="M18.5581 46.625L-0.5 53.5L6.59207 44.8569L5.75 3.5C5.75 2.7375 6.0529 2.00623 6.59207 1.46707C7.13123 0.927901 7.8625 0.625 8.625 0.625H60.375C61.1375 0.625 61.8688 0.927901 62.4079 1.46707C62.9471 2.00623 63.25 2.7375 63.25 3.5V43.75C63.25 44.5125 62.9471 45.2438 62.4079 45.7829C61.8688 46.3221 61.1375 46.625 60.375 46.625H18.5581ZM11.5 43.75L16.5686 40.875H57.5V6.375H11.5V43.75ZM34.5518 34.2625L24.8946 24.6025C23.6815 23.3894 23 21.744 23 20.0284C23 19.1789 23.1673 18.3377 23.4924 17.5529C23.8175 16.768 24.2939 16.0549 24.8946 15.4543C25.4953 14.8536 26.2084 14.3771 26.9933 14.052C27.7781 13.7269 28.6193 13.5596 29.4688 13.5596C31.1844 13.5596 32.8297 14.2411 34.0429 15.4543L34.5518 15.9631L35.0606 15.4543C35.6613 14.8536 36.3744 14.3771 37.1593 14.052C37.9441 13.7269 38.7853 13.5596 39.6348 13.5596C40.4842 13.5596 41.3254 13.7269 42.1102 14.052C42.8951 14.3771 43.6082 14.8536 44.2089 15.4543C44.8096 16.0549 45.286 16.768 45.6111 17.5529C45.9362 18.3377 46.1035 19.1789 46.1035 20.0284C46.1035 20.8779 45.9362 21.719 45.6111 22.5039C45.286 23.2887 44.8096 24.0018 44.2089 24.6025L34.5489 34.2596L34.5518 34.2625Z" fill="#5831DD"/>
</svg>
