<svg width="25" height="24" viewBox="0 0 25 24" fill="none" xmlns="http://www.w3.org/2000/svg">
<path d="M12.5 2C18.023 2 22.5 6.477 22.5 12C22.5 17.523 18.023 22 12.5 22C6.977 22 2.5 17.523 2.5 12C2.5 6.477 6.977 2 12.5 2ZM14.5 10H10.5C10.2551 10 10.0187 10.09 9.83563 10.2527C9.65259 10.4155 9.53566 10.6397 9.507 10.883L9.5 11V15H11V19H14V15H15.5V11C15.5 10.7551 15.41 10.5187 15.2473 10.3356C15.0845 10.1526 14.8603 10.0357 14.617 10.007L14.5 10ZM12.5 5C11.9696 5 11.4609 5.21071 11.0858 5.58579C10.7107 5.96086 10.5 6.46957 10.5 7C10.5 7.53043 10.7107 8.03914 11.0858 8.41421C11.4609 8.78929 11.9696 9 12.5 9C13.0304 9 13.5391 8.78929 13.9142 8.41421C14.2893 8.03914 14.5 7.53043 14.5 7C14.5 6.46957 14.2893 5.96086 13.9142 5.58579C13.5391 5.21071 13.0304 5 12.5 5Z" fill="#2F2B43" fill-opacity="0.6"/>
</svg>
