<svg width="25" height="24" viewBox="0 0 25 24" fill="none" xmlns="http://www.w3.org/2000/svg">
<path d="M11.5 17.938C9.48271 17.6813 7.63885 16.6661 6.34319 15.0988C5.04752 13.5314 4.39728 11.5295 4.52462 9.49997C4.65196 7.47041 5.54733 5.56549 7.02874 4.17238C8.51016 2.77927 10.4664 2.00252 12.5 2C14.536 1.99849 16.4961 2.77334 17.9807 4.16668C19.4653 5.56002 20.3628 7.467 20.4903 9.49904C20.6178 11.5311 19.9657 13.5353 18.6669 15.1033C17.368 16.6712 15.5203 17.685 13.5 17.938V20.012C17.446 20.104 20.5 20.735 20.5 21.5C20.5 22.328 16.918 23 12.5 23C8.082 23 4.5 22.328 4.5 21.5C4.5 20.735 7.554 20.104 11.5 20.012V17.938ZM12.5 12C13.0304 12 13.5391 11.7893 13.9142 11.4142C14.2893 11.0391 14.5 10.5304 14.5 10C14.5 9.46957 14.2893 8.96086 13.9142 8.58579C13.5391 8.21072 13.0304 8 12.5 8C11.9696 8 11.4609 8.21072 11.0858 8.58579C10.7107 8.96086 10.5 9.46957 10.5 10C10.5 10.5304 10.7107 11.0391 11.0858 11.4142C11.4609 11.7893 11.9696 12 12.5 12Z" fill="#2F2B43" fill-opacity="0.6"/>
</svg>
