<svg width="25" height="24" viewBox="0 0 25 24" fill="none" xmlns="http://www.w3.org/2000/svg">
<path d="M12.5001 12C11.174 12 9.90225 11.4732 8.96456 10.5355C8.02688 9.59785 7.5001 8.32608 7.5001 7C7.5001 5.67392 8.02688 4.40215 8.96456 3.46447C9.90225 2.52678 11.174 2 12.5001 2C13.8262 2 15.0979 2.52678 16.0356 3.46447C16.9733 4.40215 17.5001 5.67392 17.5001 7C17.5001 8.32608 16.9733 9.59785 16.0356 10.5355C15.0979 11.4732 13.8262 12 12.5001 12ZM18.5001 17V22H16.5001V17C16.5001 12.549 19.1441 8.715 22.9471 6.984L23.7751 8.804C22.2018 9.51958 20.8678 10.6729 19.9324 12.1263C18.997 13.5797 18.4998 15.2716 18.5001 17ZM8.5001 17V22H6.5001V17C6.50024 15.2718 6.00292 13.5801 5.06753 12.1269C4.13214 10.6737 2.79823 9.52051 1.2251 8.805L2.0531 6.984C3.97578 7.85849 5.6061 9.26796 6.74932 11.0441C7.89254 12.8201 8.50033 14.8878 8.5001 17Z" fill="#2F2B43" fill-opacity="0.6"/>
</svg>
