<svg xmlns="http://www.w3.org/2000/svg" width="24" height="24" viewBox="0 0 24 24" fill="none">
  <path d="M19.3615 16.9874L24 21.6248L22.4676 23.1572L17.8302 18.5187C16.1047 19.902 13.9585 20.6543 11.747 20.6512C6.36664 20.6512 2 16.2845 2 10.9042C2 5.52387 6.36664 1.15723 11.747 1.15723C17.1273 1.15723 21.4939 5.52387 21.4939 10.9042C21.4971 13.1157 20.7447 15.2619 19.3615 16.9874ZM17.189 16.1838C18.5635 14.7704 19.3311 12.8757 19.3279 10.9042C19.3279 6.71517 15.9349 3.32322 11.747 3.32322C7.55794 3.32322 4.16599 6.71517 4.16599 10.9042C4.16599 15.0921 7.55794 18.4852 11.747 18.4852C13.7185 18.4883 15.6131 17.7207 17.0266 16.3463L17.189 16.1838Z" fill="#3615A8" fill-opacity="0.6"/>
</svg>