<svg width="43" height="42" viewBox="0 0 43 42" fill="none" xmlns="http://www.w3.org/2000/svg">
<g clip-path="url(#clip0_565_1411)">
<path d="M34.3836 29.7277L42.501 37.8431L39.8192 40.5249L31.7038 32.4076C28.6841 34.8282 24.9283 36.1448 21.0582 36.1393C11.6426 36.1393 4.00098 28.4977 4.00098 19.0821C4.00098 9.66653 11.6426 2.0249 21.0582 2.0249C30.4738 2.0249 38.1154 9.66653 38.1154 19.0821C38.1209 22.9522 36.8043 26.7081 34.3836 29.7277ZM30.5818 28.3214C32.9871 25.8479 34.3303 22.5323 34.3249 19.0821C34.3249 11.7513 28.3871 5.81539 21.0582 5.81539C13.7274 5.81539 7.79147 11.7513 7.79147 19.0821C7.79147 26.411 13.7274 32.3488 21.0582 32.3488C24.5083 32.3543 27.824 31.011 30.2975 28.6057L30.5818 28.3214Z" fill="#3615A8"/>
</g>
<defs>
<clipPath id="clip0_565_1411">
<rect width="42" height="42" fill="white" transform="translate(0.500977)"/>
</clipPath>
</defs>
</svg>
